<mxfile host="Electron" agent="Mozilla/5.0 (Windows NT 10.0; Win64; x64) AppleWebKit/537.36 (KHTML, like Gecko) draw.io/24.7.17 Chrome/128.0.6613.36 Electron/32.0.1 Safari/537.36" version="24.7.17">
  <diagram name="Page-1" id="ZEwZgjVQmK9UD7g6_1EQ">
    <mxGraphModel dx="-302" dy="-2023" grid="1" gridSize="10" guides="1" tooltips="1" connect="1" arrows="1" fold="1" page="1" pageScale="1" pageWidth="827" pageHeight="1169" math="1" shadow="0">
      <root>
        <mxCell id="0" />
        <mxCell id="1" parent="0" />
        <mxCell id="Q0dVNXzPZha35_GuY8pH-69" style="edgeStyle=orthogonalEdgeStyle;rounded=0;orthogonalLoop=1;jettySize=auto;html=1;exitX=0;exitY=0.5;exitDx=0;exitDy=0;exitPerimeter=0;entryX=0;entryY=0.5;entryDx=0;entryDy=0;strokeWidth=2;endArrow=none;endFill=0;" parent="1" source="Q0dVNXzPZha35_GuY8pH-65" target="Q0dVNXzPZha35_GuY8pH-68" edge="1">
          <mxGeometry relative="1" as="geometry">
            <mxPoint x="1380" y="2730" as="targetPoint" />
            <Array as="points">
              <mxPoint x="1410" y="2635" />
              <mxPoint x="1410" y="2732" />
            </Array>
          </mxGeometry>
        </mxCell>
        <mxCell id="Q0dVNXzPZha35_GuY8pH-71" style="edgeStyle=orthogonalEdgeStyle;rounded=0;orthogonalLoop=1;jettySize=auto;html=1;exitX=1;exitY=0.5;exitDx=0;exitDy=0;exitPerimeter=0;entryX=1;entryY=0.5;entryDx=0;entryDy=0;strokeWidth=2;endArrow=none;endFill=0;" parent="1" source="Q0dVNXzPZha35_GuY8pH-65" target="Q0dVNXzPZha35_GuY8pH-68" edge="1">
          <mxGeometry relative="1" as="geometry" />
        </mxCell>
        <mxCell id="Q0dVNXzPZha35_GuY8pH-65" value="" style="pointerEvents=1;verticalLabelPosition=bottom;shadow=0;dashed=0;align=center;html=1;verticalAlign=top;shape=mxgraph.electrical.capacitors.capacitor_1;strokeWidth=2;rotation=0;" parent="1" vertex="1">
          <mxGeometry x="1435" y="2620" width="100" height="30" as="geometry" />
        </mxCell>
        <mxCell id="Q0dVNXzPZha35_GuY8pH-74" style="edgeStyle=orthogonalEdgeStyle;rounded=0;orthogonalLoop=1;jettySize=auto;html=1;exitX=1;exitY=0.5;exitDx=0;exitDy=0;entryX=0.1;entryY=0.5;entryDx=0;entryDy=0;entryPerimeter=0;strokeWidth=2;endArrow=none;endFill=0;" parent="1" source="Q0dVNXzPZha35_GuY8pH-68" target="Q0dVNXzPZha35_GuY8pH-76" edge="1">
          <mxGeometry relative="1" as="geometry">
            <mxPoint x="1620" y="2731.666666666667" as="targetPoint" />
          </mxGeometry>
        </mxCell>
        <mxCell id="Q0dVNXzPZha35_GuY8pH-68" value="$$A$$" style="triangle;whiteSpace=wrap;html=1;strokeWidth=2;spacingRight=35;spacingLeft=9;fontSize=17;" parent="1" vertex="1">
          <mxGeometry x="1440" y="2681.2200000000003" width="90" height="100.58" as="geometry" />
        </mxCell>
        <mxCell id="Q0dVNXzPZha35_GuY8pH-73" style="edgeStyle=orthogonalEdgeStyle;rounded=0;orthogonalLoop=1;jettySize=auto;html=1;exitX=0.5;exitY=1;exitDx=0;exitDy=0;exitPerimeter=0;strokeWidth=2;endArrow=none;endFill=0;" parent="1" source="Q0dVNXzPZha35_GuY8pH-72" target="Q0dVNXzPZha35_GuY8pH-68" edge="1">
          <mxGeometry relative="1" as="geometry" />
        </mxCell>
        <mxCell id="Q0dVNXzPZha35_GuY8pH-82" style="edgeStyle=orthogonalEdgeStyle;rounded=0;orthogonalLoop=1;jettySize=auto;html=1;exitX=0.5;exitY=0;exitDx=0;exitDy=0;exitPerimeter=0;strokeWidth=2;endArrow=none;endFill=0;" parent="1" source="Q0dVNXzPZha35_GuY8pH-72" edge="1">
          <mxGeometry relative="1" as="geometry">
            <mxPoint x="1370.8095238095239" y="2850" as="targetPoint" />
          </mxGeometry>
        </mxCell>
        <mxCell id="Q0dVNXzPZha35_GuY8pH-72" value="" style="pointerEvents=1;verticalLabelPosition=bottom;shadow=0;dashed=0;align=center;html=1;verticalAlign=top;shape=mxgraph.electrical.signal_sources.source;aspect=fixed;points=[[0.5,0,0],[1,0.5,0],[0.5,1,0],[0,0.5,0]];elSignalType=ac;strokeWidth=2;direction=south;rotation=90;" parent="1" vertex="1">
          <mxGeometry x="1351" y="2770" width="40" height="40" as="geometry" />
        </mxCell>
        <mxCell id="Q0dVNXzPZha35_GuY8pH-76" value="" style="verticalLabelPosition=bottom;shadow=0;dashed=0;align=center;html=1;verticalAlign=top;shape=mxgraph.electrical.logic_gates.inverting_contact;strokeWidth=2;" parent="1" vertex="1">
          <mxGeometry x="1595" y="2726.5099999999998" width="10" height="10" as="geometry" />
        </mxCell>
        <mxCell id="Q0dVNXzPZha35_GuY8pH-80" value="" style="endArrow=none;html=1;rounded=0;strokeWidth=2;" parent="1" edge="1">
          <mxGeometry width="50" height="50" relative="1" as="geometry">
            <mxPoint x="1361.0000000000002" y="2850" as="sourcePoint" />
            <mxPoint x="1381.0000000000002" y="2850" as="targetPoint" />
          </mxGeometry>
        </mxCell>
        <mxCell id="Q0dVNXzPZha35_GuY8pH-81" value="" style="endArrow=none;html=1;rounded=0;strokeWidth=2;" parent="1" edge="1">
          <mxGeometry width="50" height="50" relative="1" as="geometry">
            <mxPoint x="1366.0000000000002" y="2854.7400000000002" as="sourcePoint" />
            <mxPoint x="1376.0000000000002" y="2854.7400000000002" as="targetPoint" />
          </mxGeometry>
        </mxCell>
        <mxCell id="Q0dVNXzPZha35_GuY8pH-87" value="$$v_i$$" style="text;html=1;align=center;verticalAlign=middle;whiteSpace=wrap;rounded=0;fontSize=16;" parent="1" vertex="1">
          <mxGeometry x="1386" y="2801.37" width="25" height="20" as="geometry" />
        </mxCell>
        <mxCell id="Q0dVNXzPZha35_GuY8pH-89" value="" style="pointerEvents=1;verticalLabelPosition=bottom;shadow=0;dashed=0;align=center;html=1;verticalAlign=top;shape=mxgraph.electrical.signal_sources.source;aspect=fixed;points=[[0.5,0,0],[1,0.5,0],[0.5,1,0],[0,0.5,0]];elSignalType=dc2;elSourceType=dependent;strokeWidth=2;" parent="1" vertex="1">
          <mxGeometry x="1570" y="2398" width="52" height="52" as="geometry" />
        </mxCell>
        <mxCell id="Q0dVNXzPZha35_GuY8pH-90" value="" style="pointerEvents=1;verticalLabelPosition=bottom;shadow=0;dashed=0;align=center;html=1;verticalAlign=top;shape=mxgraph.electrical.signal_sources.source;aspect=fixed;points=[[0.5,0,0],[1,0.5,0],[0.5,1,0],[0,0.5,0]];elSignalType=dc1;rotation=-90;strokeWidth=2;" parent="1" vertex="1">
          <mxGeometry x="1480" y="2410" width="40" height="40" as="geometry" />
        </mxCell>
        <mxCell id="Q0dVNXzPZha35_GuY8pH-91" value="" style="pointerEvents=1;verticalLabelPosition=bottom;shadow=0;dashed=0;align=center;html=1;verticalAlign=top;shape=mxgraph.electrical.resistors.resistor_2;rotation=90;strokeWidth=2;" parent="1" vertex="1">
          <mxGeometry x="1640" y="2410" width="100" height="20" as="geometry" />
        </mxCell>
        <mxCell id="Q0dVNXzPZha35_GuY8pH-92" value="$$v_o=Av_i$$" style="text;html=1;align=center;verticalAlign=middle;whiteSpace=wrap;rounded=0;fontSize=16;" parent="1" vertex="1">
          <mxGeometry x="1583.5" y="2741" width="25" height="20" as="geometry" />
        </mxCell>
        <mxCell id="Q0dVNXzPZha35_GuY8pH-93" value="$$C$$" style="text;html=1;align=center;verticalAlign=middle;whiteSpace=wrap;rounded=0;fontSize=16;" parent="1" vertex="1">
          <mxGeometry x="1494" y="2607" width="25" height="20" as="geometry" />
        </mxCell>
        <mxCell id="Q0dVNXzPZha35_GuY8pH-95" value="" style="shape=flexArrow;endArrow=classic;startArrow=classic;html=1;rounded=0;strokeWidth=2;" parent="1" edge="1">
          <mxGeometry width="100" height="100" relative="1" as="geometry">
            <mxPoint x="1650" y="2716.27" as="sourcePoint" />
            <mxPoint x="1750" y="2716.27" as="targetPoint" />
          </mxGeometry>
        </mxCell>
        <mxCell id="Q0dVNXzPZha35_GuY8pH-99" style="edgeStyle=orthogonalEdgeStyle;rounded=0;orthogonalLoop=1;jettySize=auto;html=1;exitX=1;exitY=0.5;exitDx=0;exitDy=0;entryX=0.1;entryY=0.5;entryDx=0;entryDy=0;entryPerimeter=0;strokeWidth=2;endArrow=none;endFill=0;" parent="1" source="Q0dVNXzPZha35_GuY8pH-100" target="Q0dVNXzPZha35_GuY8pH-104" edge="1">
          <mxGeometry relative="1" as="geometry">
            <mxPoint x="2100" y="2711.666666666667" as="targetPoint" />
          </mxGeometry>
        </mxCell>
        <mxCell id="Q0dVNXzPZha35_GuY8pH-100" value="$$A$$" style="triangle;whiteSpace=wrap;html=1;strokeWidth=2;spacingRight=35;spacingLeft=9;fontSize=17;" parent="1" vertex="1">
          <mxGeometry x="1910" y="2640.42" width="90" height="100.58" as="geometry" />
        </mxCell>
        <mxCell id="Q0dVNXzPZha35_GuY8pH-102" style="edgeStyle=orthogonalEdgeStyle;rounded=0;orthogonalLoop=1;jettySize=auto;html=1;exitX=0.5;exitY=0;exitDx=0;exitDy=0;exitPerimeter=0;strokeWidth=2;endArrow=none;endFill=0;" parent="1" source="Q0dVNXzPZha35_GuY8pH-103" edge="1">
          <mxGeometry relative="1" as="geometry">
            <mxPoint x="1799.8095238095239" y="2830.3" as="targetPoint" />
          </mxGeometry>
        </mxCell>
        <mxCell id="Q0dVNXzPZha35_GuY8pH-103" value="" style="pointerEvents=1;verticalLabelPosition=bottom;shadow=0;dashed=0;align=center;html=1;verticalAlign=top;shape=mxgraph.electrical.signal_sources.source;aspect=fixed;points=[[0.5,0,0],[1,0.5,0],[0.5,1,0],[0,0.5,0]];elSignalType=ac;strokeWidth=2;direction=south;rotation=90;" parent="1" vertex="1">
          <mxGeometry x="1780" y="2745.4500000000003" width="40" height="40" as="geometry" />
        </mxCell>
        <mxCell id="Q0dVNXzPZha35_GuY8pH-104" value="" style="verticalLabelPosition=bottom;shadow=0;dashed=0;align=center;html=1;verticalAlign=top;shape=mxgraph.electrical.logic_gates.inverting_contact;strokeWidth=2;" parent="1" vertex="1">
          <mxGeometry x="2090" y="2685.7099999999996" width="10" height="10" as="geometry" />
        </mxCell>
        <mxCell id="Q0dVNXzPZha35_GuY8pH-105" value="" style="endArrow=none;html=1;rounded=0;strokeWidth=2;" parent="1" edge="1">
          <mxGeometry width="50" height="50" relative="1" as="geometry">
            <mxPoint x="1790.0000000000002" y="2830.3" as="sourcePoint" />
            <mxPoint x="1810.0000000000002" y="2830.3" as="targetPoint" />
          </mxGeometry>
        </mxCell>
        <mxCell id="Q0dVNXzPZha35_GuY8pH-106" value="" style="endArrow=none;html=1;rounded=0;strokeWidth=2;" parent="1" edge="1">
          <mxGeometry width="50" height="50" relative="1" as="geometry">
            <mxPoint x="1795.0000000000002" y="2835.0400000000004" as="sourcePoint" />
            <mxPoint x="1805.0000000000002" y="2835.0400000000004" as="targetPoint" />
          </mxGeometry>
        </mxCell>
        <mxCell id="Q0dVNXzPZha35_GuY8pH-107" value="$$v_i$$" style="text;html=1;align=center;verticalAlign=middle;whiteSpace=wrap;rounded=0;fontSize=16;" parent="1" vertex="1">
          <mxGeometry x="1815" y="2781.67" width="25" height="20" as="geometry" />
        </mxCell>
        <mxCell id="Q0dVNXzPZha35_GuY8pH-108" value="$$v_o=Av_i$$" style="text;html=1;align=center;verticalAlign=middle;whiteSpace=wrap;rounded=0;fontSize=16;" parent="1" vertex="1">
          <mxGeometry x="2082.5" y="2706.51" width="25" height="20" as="geometry" />
        </mxCell>
        <mxCell id="Q0dVNXzPZha35_GuY8pH-117" style="edgeStyle=orthogonalEdgeStyle;rounded=0;orthogonalLoop=1;jettySize=auto;html=1;exitX=0;exitY=0.5;exitDx=0;exitDy=0;exitPerimeter=0;entryX=0;entryY=0.5;entryDx=0;entryDy=0;strokeWidth=2;endArrow=none;endFill=0;" parent="1" source="Q0dVNXzPZha35_GuY8pH-110" target="Q0dVNXzPZha35_GuY8pH-100" edge="1">
          <mxGeometry relative="1" as="geometry" />
        </mxCell>
        <mxCell id="Q0dVNXzPZha35_GuY8pH-119" style="edgeStyle=orthogonalEdgeStyle;rounded=0;orthogonalLoop=1;jettySize=auto;html=1;exitX=1;exitY=0.5;exitDx=0;exitDy=0;exitPerimeter=0;strokeWidth=2;endArrow=none;endFill=0;" parent="1" source="Q0dVNXzPZha35_GuY8pH-110" edge="1">
          <mxGeometry relative="1" as="geometry">
            <mxPoint x="1869.857142857143" y="2830" as="targetPoint" />
          </mxGeometry>
        </mxCell>
        <mxCell id="Q0dVNXzPZha35_GuY8pH-110" value="" style="pointerEvents=1;verticalLabelPosition=bottom;shadow=0;dashed=0;align=center;html=1;verticalAlign=top;shape=mxgraph.electrical.capacitors.capacitor_1;strokeWidth=2;rotation=90;" parent="1" vertex="1">
          <mxGeometry x="1820" y="2750.2999999999997" width="100" height="30.3" as="geometry" />
        </mxCell>
        <mxCell id="Q0dVNXzPZha35_GuY8pH-111" style="edgeStyle=orthogonalEdgeStyle;rounded=0;orthogonalLoop=1;jettySize=auto;html=1;exitX=0;exitY=0.5;exitDx=0;exitDy=0;entryX=0.5;entryY=1;entryDx=0;entryDy=0;entryPerimeter=0;strokeWidth=2;endArrow=none;endFill=0;" parent="1" source="Q0dVNXzPZha35_GuY8pH-100" target="Q0dVNXzPZha35_GuY8pH-103" edge="1">
          <mxGeometry relative="1" as="geometry" />
        </mxCell>
        <mxCell id="Q0dVNXzPZha35_GuY8pH-114" value="" style="endArrow=none;html=1;rounded=0;strokeWidth=2;" parent="1" edge="1">
          <mxGeometry width="50" height="50" relative="1" as="geometry">
            <mxPoint x="1860.0000000000002" y="2830" as="sourcePoint" />
            <mxPoint x="1880.0000000000002" y="2830" as="targetPoint" />
          </mxGeometry>
        </mxCell>
        <mxCell id="Q0dVNXzPZha35_GuY8pH-115" value="" style="endArrow=none;html=1;rounded=0;strokeWidth=2;" parent="1" edge="1">
          <mxGeometry width="50" height="50" relative="1" as="geometry">
            <mxPoint x="1865.0000000000002" y="2834.7400000000002" as="sourcePoint" />
            <mxPoint x="1875.0000000000002" y="2834.7400000000002" as="targetPoint" />
          </mxGeometry>
        </mxCell>
        <mxCell id="Q0dVNXzPZha35_GuY8pH-118" style="edgeStyle=orthogonalEdgeStyle;rounded=0;orthogonalLoop=1;jettySize=auto;html=1;exitX=0;exitY=0.5;exitDx=0;exitDy=0;exitPerimeter=0;entryX=1;entryY=0.5;entryDx=0;entryDy=0;strokeWidth=2;endArrow=none;endFill=0;" parent="1" source="Q0dVNXzPZha35_GuY8pH-116" target="Q0dVNXzPZha35_GuY8pH-100" edge="1">
          <mxGeometry relative="1" as="geometry">
            <Array as="points">
              <mxPoint x="2025" y="2691" />
            </Array>
          </mxGeometry>
        </mxCell>
        <mxCell id="Q0dVNXzPZha35_GuY8pH-122" style="edgeStyle=orthogonalEdgeStyle;rounded=0;orthogonalLoop=1;jettySize=auto;html=1;exitX=1;exitY=0.5;exitDx=0;exitDy=0;exitPerimeter=0;strokeWidth=2;endArrow=none;endFill=0;" parent="1" source="Q0dVNXzPZha35_GuY8pH-116" edge="1">
          <mxGeometry relative="1" as="geometry">
            <mxPoint x="2025" y="2830" as="targetPoint" />
          </mxGeometry>
        </mxCell>
        <mxCell id="Q0dVNXzPZha35_GuY8pH-116" value="" style="pointerEvents=1;verticalLabelPosition=bottom;shadow=0;dashed=0;align=center;html=1;verticalAlign=top;shape=mxgraph.electrical.capacitors.capacitor_1;strokeWidth=2;rotation=90;" parent="1" vertex="1">
          <mxGeometry x="1975" y="2750.2999999999997" width="100" height="30.3" as="geometry" />
        </mxCell>
        <mxCell id="Q0dVNXzPZha35_GuY8pH-120" value="" style="endArrow=none;html=1;rounded=0;strokeWidth=2;" parent="1" edge="1">
          <mxGeometry width="50" height="50" relative="1" as="geometry">
            <mxPoint x="2015.0000000000002" y="2830" as="sourcePoint" />
            <mxPoint x="2035.0000000000002" y="2830" as="targetPoint" />
          </mxGeometry>
        </mxCell>
        <mxCell id="Q0dVNXzPZha35_GuY8pH-121" value="" style="endArrow=none;html=1;rounded=0;strokeWidth=2;" parent="1" edge="1">
          <mxGeometry width="50" height="50" relative="1" as="geometry">
            <mxPoint x="2020.0000000000002" y="2834.7400000000002" as="sourcePoint" />
            <mxPoint x="2030.0000000000002" y="2834.7400000000002" as="targetPoint" />
          </mxGeometry>
        </mxCell>
        <mxCell id="Q0dVNXzPZha35_GuY8pH-123" value="$$C(1-A)$$" style="text;html=1;align=center;verticalAlign=middle;whiteSpace=wrap;rounded=0;fontSize=16;" parent="1" vertex="1">
          <mxGeometry x="1910" y="2780" width="25" height="20" as="geometry" />
        </mxCell>
        <mxCell id="Q0dVNXzPZha35_GuY8pH-124" value="$$C(1-\frac{1}{A})$$" style="text;html=1;align=center;verticalAlign=middle;whiteSpace=wrap;rounded=0;fontSize=16;" parent="1" vertex="1">
          <mxGeometry x="2068" y="2780" width="25" height="20" as="geometry" />
        </mxCell>
        <mxCell id="Q0dVNXzPZha35_GuY8pH-127" value="" style="pointerEvents=1;verticalLabelPosition=bottom;shadow=0;dashed=0;align=center;html=1;verticalAlign=top;shape=mxgraph.electrical.signal_sources.source;aspect=fixed;points=[[0.5,0,0],[1,0.5,0],[0.5,1,0],[0,0.5,0]];elSignalType=dc1;rotation=-90;strokeWidth=2;" parent="1" vertex="1">
          <mxGeometry x="1470" y="2923" width="40" height="40" as="geometry" />
        </mxCell>
        <mxCell id="aR3fcNsO5CrJPgI6uOHy-1" style="edgeStyle=orthogonalEdgeStyle;rounded=0;orthogonalLoop=1;jettySize=auto;html=1;exitX=1;exitY=0.5;exitDx=0;exitDy=0;exitPerimeter=0;entryX=1;entryY=0.5;entryDx=0;entryDy=0;strokeWidth=2;endArrow=none;endFill=0;" edge="1" parent="1" source="aR3fcNsO5CrJPgI6uOHy-3" target="aR3fcNsO5CrJPgI6uOHy-22">
          <mxGeometry relative="1" as="geometry" />
        </mxCell>
        <mxCell id="aR3fcNsO5CrJPgI6uOHy-2" style="edgeStyle=orthogonalEdgeStyle;rounded=0;orthogonalLoop=1;jettySize=auto;html=1;exitX=1;exitY=0.5;exitDx=0;exitDy=0;exitPerimeter=0;entryX=0;entryY=0.5;entryDx=0;entryDy=0;strokeWidth=2;endArrow=none;endFill=0;" edge="1" parent="1" source="aR3fcNsO5CrJPgI6uOHy-3" target="aR3fcNsO5CrJPgI6uOHy-23">
          <mxGeometry relative="1" as="geometry" />
        </mxCell>
        <mxCell id="aR3fcNsO5CrJPgI6uOHy-3" value="" style="pointerEvents=1;verticalLabelPosition=bottom;shadow=0;dashed=0;align=center;html=1;verticalAlign=top;shape=mxgraph.electrical.capacitors.capacitor_1;strokeWidth=2;rotation=90;" vertex="1" parent="1">
          <mxGeometry x="1327.5" y="3180" width="100" height="30" as="geometry" />
        </mxCell>
        <mxCell id="aR3fcNsO5CrJPgI6uOHy-4" style="edgeStyle=orthogonalEdgeStyle;rounded=0;orthogonalLoop=1;jettySize=auto;html=1;exitX=0;exitY=0.5;exitDx=0;exitDy=0;exitPerimeter=0;entryX=1;entryY=0.5;entryDx=0;entryDy=0;strokeWidth=2;endArrow=none;endFill=0;" edge="1" parent="1" source="aR3fcNsO5CrJPgI6uOHy-5" target="aR3fcNsO5CrJPgI6uOHy-20">
          <mxGeometry relative="1" as="geometry" />
        </mxCell>
        <mxCell id="aR3fcNsO5CrJPgI6uOHy-5" value="" style="pointerEvents=1;verticalLabelPosition=bottom;shadow=0;dashed=0;align=center;html=1;verticalAlign=top;shape=mxgraph.electrical.resistors.resistor_2;rotation=0;strokeWidth=2;" vertex="1" parent="1">
          <mxGeometry x="1232.5" y="3105" width="100" height="20" as="geometry" />
        </mxCell>
        <mxCell id="aR3fcNsO5CrJPgI6uOHy-6" style="edgeStyle=orthogonalEdgeStyle;rounded=0;orthogonalLoop=1;jettySize=auto;html=1;exitX=0;exitY=0.5;exitDx=0;exitDy=0;exitPerimeter=0;entryX=1;entryY=0.5;entryDx=0;entryDy=0;strokeWidth=2;endArrow=none;endFill=0;" edge="1" parent="1" source="aR3fcNsO5CrJPgI6uOHy-7" target="aR3fcNsO5CrJPgI6uOHy-22">
          <mxGeometry relative="1" as="geometry" />
        </mxCell>
        <mxCell id="aR3fcNsO5CrJPgI6uOHy-7" value="" style="pointerEvents=1;verticalLabelPosition=bottom;shadow=0;dashed=0;align=center;html=1;verticalAlign=top;shape=mxgraph.electrical.resistors.resistor_2;rotation=-90;strokeWidth=2;" vertex="1" parent="1">
          <mxGeometry x="1390.5" y="3185" width="100" height="20" as="geometry" />
        </mxCell>
        <mxCell id="aR3fcNsO5CrJPgI6uOHy-9" value="" style="pointerEvents=1;verticalLabelPosition=bottom;shadow=0;dashed=0;align=center;html=1;verticalAlign=top;shape=mxgraph.electrical.capacitors.capacitor_1;strokeWidth=2;rotation=0;" vertex="1" parent="1">
          <mxGeometry x="1472.5" y="3060" width="100" height="30" as="geometry" />
        </mxCell>
        <mxCell id="aR3fcNsO5CrJPgI6uOHy-12" style="edgeStyle=orthogonalEdgeStyle;rounded=0;orthogonalLoop=1;jettySize=auto;html=1;exitX=0.5;exitY=1;exitDx=0;exitDy=0;exitPerimeter=0;entryX=0;entryY=0.5;entryDx=0;entryDy=0;strokeWidth=2;endArrow=none;endFill=0;" edge="1" parent="1" source="aR3fcNsO5CrJPgI6uOHy-13" target="aR3fcNsO5CrJPgI6uOHy-23">
          <mxGeometry relative="1" as="geometry">
            <Array as="points">
              <mxPoint x="1600" y="3225" />
              <mxPoint x="1600" y="3275" />
            </Array>
          </mxGeometry>
        </mxCell>
        <mxCell id="aR3fcNsO5CrJPgI6uOHy-13" value="" style="pointerEvents=1;verticalLabelPosition=bottom;shadow=0;dashed=0;align=center;html=1;verticalAlign=top;shape=mxgraph.electrical.signal_sources.source;aspect=fixed;points=[[0.5,0,0],[1,0.5,0],[0.5,1,0],[0,0.5,0]];elSignalType=dc2;elSourceType=dependent;strokeWidth=2;" vertex="1" parent="1">
          <mxGeometry x="1570" y="3165" width="60" height="60" as="geometry" />
        </mxCell>
        <mxCell id="aR3fcNsO5CrJPgI6uOHy-14" style="edgeStyle=orthogonalEdgeStyle;rounded=0;orthogonalLoop=1;jettySize=auto;html=1;exitX=1;exitY=0.5;exitDx=0;exitDy=0;exitPerimeter=0;entryX=1;entryY=0.5;entryDx=0;entryDy=0;entryPerimeter=0;strokeWidth=2;endArrow=none;endFill=0;" edge="1" parent="1" source="aR3fcNsO5CrJPgI6uOHy-5" target="aR3fcNsO5CrJPgI6uOHy-7">
          <mxGeometry relative="1" as="geometry" />
        </mxCell>
        <mxCell id="aR3fcNsO5CrJPgI6uOHy-15" style="edgeStyle=orthogonalEdgeStyle;rounded=0;orthogonalLoop=1;jettySize=auto;html=1;exitX=1;exitY=0.5;exitDx=0;exitDy=0;exitPerimeter=0;entryX=0;entryY=0.5;entryDx=0;entryDy=0;entryPerimeter=0;strokeWidth=2;endArrow=none;endFill=0;" edge="1" parent="1" source="aR3fcNsO5CrJPgI6uOHy-5" target="aR3fcNsO5CrJPgI6uOHy-3">
          <mxGeometry relative="1" as="geometry" />
        </mxCell>
        <mxCell id="aR3fcNsO5CrJPgI6uOHy-18" style="edgeStyle=orthogonalEdgeStyle;rounded=0;orthogonalLoop=1;jettySize=auto;html=1;exitX=1;exitY=0.5;exitDx=0;exitDy=0;exitPerimeter=0;entryX=0.5;entryY=0;entryDx=0;entryDy=0;entryPerimeter=0;strokeWidth=2;endArrow=none;endFill=0;" edge="1" parent="1" source="aR3fcNsO5CrJPgI6uOHy-9" target="aR3fcNsO5CrJPgI6uOHy-13">
          <mxGeometry relative="1" as="geometry" />
        </mxCell>
        <mxCell id="aR3fcNsO5CrJPgI6uOHy-20" value="" style="ellipse;whiteSpace=wrap;html=1;aspect=fixed;strokeWidth=2;" vertex="1" parent="1">
          <mxGeometry x="1209.5" y="3111" width="8" height="8" as="geometry" />
        </mxCell>
        <mxCell id="aR3fcNsO5CrJPgI6uOHy-22" value="" style="ellipse;whiteSpace=wrap;html=1;aspect=fixed;strokeWidth=2;" vertex="1" parent="1">
          <mxGeometry x="1209.5" y="3271" width="8" height="8" as="geometry" />
        </mxCell>
        <mxCell id="aR3fcNsO5CrJPgI6uOHy-23" value="" style="ellipse;whiteSpace=wrap;html=1;aspect=fixed;strokeWidth=2;" vertex="1" parent="1">
          <mxGeometry x="1677.5" y="3271" width="8" height="8" as="geometry" />
        </mxCell>
        <mxCell id="aR3fcNsO5CrJPgI6uOHy-24" value="" style="ellipse;whiteSpace=wrap;html=1;aspect=fixed;strokeWidth=2;" vertex="1" parent="1">
          <mxGeometry x="1677.5" y="3111" width="8" height="8" as="geometry" />
        </mxCell>
        <mxCell id="aR3fcNsO5CrJPgI6uOHy-26" value="$$r_{bb}$$" style="text;html=1;align=center;verticalAlign=middle;whiteSpace=wrap;rounded=0;fontSize=16;" vertex="1" parent="1">
          <mxGeometry x="1252.5" y="3070" width="60" height="30" as="geometry" />
        </mxCell>
        <mxCell id="aR3fcNsO5CrJPgI6uOHy-28" value="$$C_{b&#39;e}$$" style="text;html=1;align=center;verticalAlign=middle;whiteSpace=wrap;rounded=0;fontSize=16;" vertex="1" parent="1">
          <mxGeometry x="1332.5" y="3195" width="40" height="30" as="geometry" />
        </mxCell>
        <mxCell id="aR3fcNsO5CrJPgI6uOHy-29" value="$$b$$" style="text;html=1;align=center;verticalAlign=middle;whiteSpace=wrap;rounded=0;fontSize=18;" vertex="1" parent="1">
          <mxGeometry x="1187.5" y="3081" width="30" height="30" as="geometry" />
        </mxCell>
        <mxCell id="aR3fcNsO5CrJPgI6uOHy-30" value="$$c$$" style="text;html=1;align=center;verticalAlign=middle;whiteSpace=wrap;rounded=0;fontSize=18;" vertex="1" parent="1">
          <mxGeometry x="1677.5" y="3081" width="20" height="29" as="geometry" />
        </mxCell>
        <mxCell id="aR3fcNsO5CrJPgI6uOHy-31" value="$$e$$" style="text;html=1;align=center;verticalAlign=middle;whiteSpace=wrap;rounded=0;fontSize=18;" vertex="1" parent="1">
          <mxGeometry x="1192.5" y="3241" width="20" height="30" as="geometry" />
        </mxCell>
        <mxCell id="aR3fcNsO5CrJPgI6uOHy-32" value="$$e$$" style="text;html=1;align=center;verticalAlign=middle;whiteSpace=wrap;rounded=0;fontSize=18;" vertex="1" parent="1">
          <mxGeometry x="1677.5" y="3241" width="25" height="30" as="geometry" />
        </mxCell>
        <mxCell id="aR3fcNsO5CrJPgI6uOHy-34" value="$$r_{\pi}$$" style="text;html=1;align=center;verticalAlign=middle;whiteSpace=wrap;rounded=0;fontSize=16;" vertex="1" parent="1">
          <mxGeometry x="1410" y="3215.5" width="20" height="30" as="geometry" />
        </mxCell>
        <mxCell id="aR3fcNsO5CrJPgI6uOHy-37" value="$$C_{b&#39;c}$$" style="text;html=1;align=center;verticalAlign=middle;whiteSpace=wrap;rounded=0;fontSize=16;" vertex="1" parent="1">
          <mxGeometry x="1487.5" y="3090" width="70" height="30" as="geometry" />
        </mxCell>
        <mxCell id="aR3fcNsO5CrJPgI6uOHy-39" value="+" style="text;html=1;align=center;verticalAlign=middle;whiteSpace=wrap;rounded=0;fontSize=18;" vertex="1" parent="1">
          <mxGeometry x="1472.5" y="3149" width="10" height="11" as="geometry" />
        </mxCell>
        <mxCell id="aR3fcNsO5CrJPgI6uOHy-40" value="-" style="text;html=1;align=center;verticalAlign=middle;whiteSpace=wrap;rounded=0;fontSize=18;" vertex="1" parent="1">
          <mxGeometry x="1472.5" y="3225" width="10" height="11" as="geometry" />
        </mxCell>
        <mxCell id="aR3fcNsO5CrJPgI6uOHy-41" value="$$v_{b&#39;e}$$" style="text;html=1;align=center;verticalAlign=middle;whiteSpace=wrap;rounded=0;fontSize=16;" vertex="1" parent="1">
          <mxGeometry x="1464.5" y="3177" width="26" height="30" as="geometry" />
        </mxCell>
        <mxCell id="aR3fcNsO5CrJPgI6uOHy-42" value="$$g_mv_{b&#39;e}$$" style="text;html=1;align=center;verticalAlign=middle;whiteSpace=wrap;rounded=0;fontSize=16;" vertex="1" parent="1">
          <mxGeometry x="1628" y="3211" width="26" height="30" as="geometry" />
        </mxCell>
        <mxCell id="aR3fcNsO5CrJPgI6uOHy-46" value="$$b&#39;$$" style="text;html=1;align=center;verticalAlign=middle;whiteSpace=wrap;rounded=0;fontSize=18;" vertex="1" parent="1">
          <mxGeometry x="1332.5" y="3082" width="30" height="30" as="geometry" />
        </mxCell>
        <mxCell id="aR3fcNsO5CrJPgI6uOHy-47" style="edgeStyle=orthogonalEdgeStyle;rounded=0;orthogonalLoop=1;jettySize=auto;html=1;exitX=1;exitY=0.5;exitDx=0;exitDy=0;exitPerimeter=0;entryX=1;entryY=0.5;entryDx=0;entryDy=0;strokeWidth=2;endArrow=none;endFill=0;" edge="1" parent="1" source="aR3fcNsO5CrJPgI6uOHy-49" target="aR3fcNsO5CrJPgI6uOHy-62">
          <mxGeometry relative="1" as="geometry" />
        </mxCell>
        <mxCell id="aR3fcNsO5CrJPgI6uOHy-48" style="edgeStyle=orthogonalEdgeStyle;rounded=0;orthogonalLoop=1;jettySize=auto;html=1;exitX=1;exitY=0.5;exitDx=0;exitDy=0;exitPerimeter=0;entryX=0;entryY=0.5;entryDx=0;entryDy=0;strokeWidth=2;endArrow=none;endFill=0;" edge="1" parent="1" source="aR3fcNsO5CrJPgI6uOHy-49" target="aR3fcNsO5CrJPgI6uOHy-63">
          <mxGeometry relative="1" as="geometry" />
        </mxCell>
        <mxCell id="aR3fcNsO5CrJPgI6uOHy-49" value="" style="pointerEvents=1;verticalLabelPosition=bottom;shadow=0;dashed=0;align=center;html=1;verticalAlign=top;shape=mxgraph.electrical.capacitors.capacitor_1;strokeWidth=2;rotation=90;" vertex="1" parent="1">
          <mxGeometry x="1327.5" y="3467" width="100" height="30" as="geometry" />
        </mxCell>
        <mxCell id="aR3fcNsO5CrJPgI6uOHy-50" style="edgeStyle=orthogonalEdgeStyle;rounded=0;orthogonalLoop=1;jettySize=auto;html=1;exitX=0;exitY=0.5;exitDx=0;exitDy=0;exitPerimeter=0;entryX=1;entryY=0.5;entryDx=0;entryDy=0;strokeWidth=2;endArrow=none;endFill=0;" edge="1" parent="1" source="aR3fcNsO5CrJPgI6uOHy-51" target="aR3fcNsO5CrJPgI6uOHy-61">
          <mxGeometry relative="1" as="geometry" />
        </mxCell>
        <mxCell id="aR3fcNsO5CrJPgI6uOHy-51" value="" style="pointerEvents=1;verticalLabelPosition=bottom;shadow=0;dashed=0;align=center;html=1;verticalAlign=top;shape=mxgraph.electrical.resistors.resistor_2;rotation=0;strokeWidth=2;" vertex="1" parent="1">
          <mxGeometry x="1232.5" y="3395" width="100" height="20" as="geometry" />
        </mxCell>
        <mxCell id="aR3fcNsO5CrJPgI6uOHy-52" style="edgeStyle=orthogonalEdgeStyle;rounded=0;orthogonalLoop=1;jettySize=auto;html=1;exitX=0;exitY=0.5;exitDx=0;exitDy=0;exitPerimeter=0;entryX=1;entryY=0.5;entryDx=0;entryDy=0;strokeWidth=2;endArrow=none;endFill=0;" edge="1" parent="1" source="aR3fcNsO5CrJPgI6uOHy-53" target="aR3fcNsO5CrJPgI6uOHy-62">
          <mxGeometry relative="1" as="geometry" />
        </mxCell>
        <mxCell id="aR3fcNsO5CrJPgI6uOHy-53" value="" style="pointerEvents=1;verticalLabelPosition=bottom;shadow=0;dashed=0;align=center;html=1;verticalAlign=top;shape=mxgraph.electrical.resistors.resistor_2;rotation=-90;strokeWidth=2;" vertex="1" parent="1">
          <mxGeometry x="1390.5" y="3475" width="100" height="20" as="geometry" />
        </mxCell>
        <mxCell id="aR3fcNsO5CrJPgI6uOHy-54" value="" style="pointerEvents=1;verticalLabelPosition=bottom;shadow=0;dashed=0;align=center;html=1;verticalAlign=top;shape=mxgraph.electrical.capacitors.capacitor_1;strokeWidth=2;rotation=0;" vertex="1" parent="1">
          <mxGeometry x="1470" y="3330" width="100" height="30" as="geometry" />
        </mxCell>
        <mxCell id="aR3fcNsO5CrJPgI6uOHy-56" value="" style="pointerEvents=1;verticalLabelPosition=bottom;shadow=0;dashed=0;align=center;html=1;verticalAlign=top;shape=mxgraph.electrical.signal_sources.source;aspect=fixed;points=[[0.5,0,0],[1,0.5,0],[0.5,1,0],[0,0.5,0]];elSignalType=dc2;elSourceType=dependent;strokeWidth=2;rotation=90;" vertex="1" parent="1">
          <mxGeometry x="1494" y="3375" width="60" height="60" as="geometry" />
        </mxCell>
        <mxCell id="aR3fcNsO5CrJPgI6uOHy-57" style="edgeStyle=orthogonalEdgeStyle;rounded=0;orthogonalLoop=1;jettySize=auto;html=1;exitX=1;exitY=0.5;exitDx=0;exitDy=0;exitPerimeter=0;entryX=1;entryY=0.5;entryDx=0;entryDy=0;entryPerimeter=0;strokeWidth=2;endArrow=none;endFill=0;" edge="1" parent="1" source="aR3fcNsO5CrJPgI6uOHy-51" target="aR3fcNsO5CrJPgI6uOHy-53">
          <mxGeometry relative="1" as="geometry" />
        </mxCell>
        <mxCell id="aR3fcNsO5CrJPgI6uOHy-58" style="edgeStyle=orthogonalEdgeStyle;rounded=0;orthogonalLoop=1;jettySize=auto;html=1;exitX=1;exitY=0.5;exitDx=0;exitDy=0;exitPerimeter=0;entryX=0;entryY=0.5;entryDx=0;entryDy=0;entryPerimeter=0;strokeWidth=2;endArrow=none;endFill=0;" edge="1" parent="1" source="aR3fcNsO5CrJPgI6uOHy-51" target="aR3fcNsO5CrJPgI6uOHy-49">
          <mxGeometry relative="1" as="geometry" />
        </mxCell>
        <mxCell id="aR3fcNsO5CrJPgI6uOHy-60" style="edgeStyle=orthogonalEdgeStyle;rounded=0;orthogonalLoop=1;jettySize=auto;html=1;exitX=1;exitY=0.5;exitDx=0;exitDy=0;exitPerimeter=0;entryX=0.5;entryY=0;entryDx=0;entryDy=0;entryPerimeter=0;strokeWidth=2;endArrow=none;endFill=0;" edge="1" parent="1" source="aR3fcNsO5CrJPgI6uOHy-54" target="aR3fcNsO5CrJPgI6uOHy-56">
          <mxGeometry relative="1" as="geometry">
            <Array as="points">
              <mxPoint x="1600" y="3345" />
              <mxPoint x="1600" y="3405" />
            </Array>
          </mxGeometry>
        </mxCell>
        <mxCell id="aR3fcNsO5CrJPgI6uOHy-61" value="" style="ellipse;whiteSpace=wrap;html=1;aspect=fixed;strokeWidth=2;" vertex="1" parent="1">
          <mxGeometry x="1209.5" y="3401" width="8" height="8" as="geometry" />
        </mxCell>
        <mxCell id="aR3fcNsO5CrJPgI6uOHy-62" value="" style="ellipse;whiteSpace=wrap;html=1;aspect=fixed;strokeWidth=2;" vertex="1" parent="1">
          <mxGeometry x="1209.5" y="3561" width="8" height="8" as="geometry" />
        </mxCell>
        <mxCell id="aR3fcNsO5CrJPgI6uOHy-63" value="" style="ellipse;whiteSpace=wrap;html=1;aspect=fixed;strokeWidth=2;" vertex="1" parent="1">
          <mxGeometry x="1677.5" y="3561" width="8" height="8" as="geometry" />
        </mxCell>
        <mxCell id="aR3fcNsO5CrJPgI6uOHy-64" value="" style="ellipse;whiteSpace=wrap;html=1;aspect=fixed;strokeWidth=2;" vertex="1" parent="1">
          <mxGeometry x="1677.5" y="3401" width="8" height="8" as="geometry" />
        </mxCell>
        <mxCell id="aR3fcNsO5CrJPgI6uOHy-65" value="$$r_{bb}$$" style="text;html=1;align=center;verticalAlign=middle;whiteSpace=wrap;rounded=0;fontSize=16;" vertex="1" parent="1">
          <mxGeometry x="1252.5" y="3360" width="60" height="30" as="geometry" />
        </mxCell>
        <mxCell id="aR3fcNsO5CrJPgI6uOHy-66" value="$$C_{b&#39;e}$$" style="text;html=1;align=center;verticalAlign=middle;whiteSpace=wrap;rounded=0;fontSize=16;" vertex="1" parent="1">
          <mxGeometry x="1312.5" y="3485" width="40" height="30" as="geometry" />
        </mxCell>
        <mxCell id="aR3fcNsO5CrJPgI6uOHy-67" value="$$b$$" style="text;html=1;align=center;verticalAlign=middle;whiteSpace=wrap;rounded=0;fontSize=18;" vertex="1" parent="1">
          <mxGeometry x="1187.5" y="3371" width="30" height="30" as="geometry" />
        </mxCell>
        <mxCell id="aR3fcNsO5CrJPgI6uOHy-68" value="$$c$$" style="text;html=1;align=center;verticalAlign=middle;whiteSpace=wrap;rounded=0;fontSize=18;" vertex="1" parent="1">
          <mxGeometry x="1677.5" y="3371" width="20" height="29" as="geometry" />
        </mxCell>
        <mxCell id="aR3fcNsO5CrJPgI6uOHy-69" value="$$e$$" style="text;html=1;align=center;verticalAlign=middle;whiteSpace=wrap;rounded=0;fontSize=18;" vertex="1" parent="1">
          <mxGeometry x="1192.5" y="3531" width="20" height="30" as="geometry" />
        </mxCell>
        <mxCell id="aR3fcNsO5CrJPgI6uOHy-70" value="$$e$$" style="text;html=1;align=center;verticalAlign=middle;whiteSpace=wrap;rounded=0;fontSize=18;" vertex="1" parent="1">
          <mxGeometry x="1677.5" y="3531" width="25" height="30" as="geometry" />
        </mxCell>
        <mxCell id="aR3fcNsO5CrJPgI6uOHy-71" value="$$r_e$$" style="text;html=1;align=center;verticalAlign=middle;whiteSpace=wrap;rounded=0;fontSize=16;" vertex="1" parent="1">
          <mxGeometry x="1410" y="3505.5" width="20" height="30" as="geometry" />
        </mxCell>
        <mxCell id="aR3fcNsO5CrJPgI6uOHy-74" value="+" style="text;html=1;align=center;verticalAlign=middle;whiteSpace=wrap;rounded=0;fontSize=18;" vertex="1" parent="1">
          <mxGeometry x="1472.5" y="3439" width="10" height="11" as="geometry" />
        </mxCell>
        <mxCell id="aR3fcNsO5CrJPgI6uOHy-75" value="-" style="text;html=1;align=center;verticalAlign=middle;whiteSpace=wrap;rounded=0;fontSize=18;" vertex="1" parent="1">
          <mxGeometry x="1472.5" y="3515" width="10" height="11" as="geometry" />
        </mxCell>
        <mxCell id="aR3fcNsO5CrJPgI6uOHy-76" value="$$v_{b&#39;e}$$" style="text;html=1;align=center;verticalAlign=middle;whiteSpace=wrap;rounded=0;fontSize=16;" vertex="1" parent="1">
          <mxGeometry x="1464.5" y="3467" width="26" height="30" as="geometry" />
        </mxCell>
        <mxCell id="aR3fcNsO5CrJPgI6uOHy-79" value="$$b&#39;$$" style="text;html=1;align=center;verticalAlign=middle;whiteSpace=wrap;rounded=0;fontSize=18;" vertex="1" parent="1">
          <mxGeometry x="1332.5" y="3372" width="30" height="30" as="geometry" />
        </mxCell>
        <mxCell id="aR3fcNsO5CrJPgI6uOHy-80" style="edgeStyle=orthogonalEdgeStyle;rounded=0;orthogonalLoop=1;jettySize=auto;html=1;exitX=0;exitY=0.5;exitDx=0;exitDy=0;entryX=0.5;entryY=0;entryDx=0;entryDy=0;entryPerimeter=0;strokeWidth=2;endArrow=none;endFill=0;" edge="1" parent="1" source="aR3fcNsO5CrJPgI6uOHy-64" target="aR3fcNsO5CrJPgI6uOHy-56">
          <mxGeometry relative="1" as="geometry" />
        </mxCell>
        <mxCell id="aR3fcNsO5CrJPgI6uOHy-81" style="edgeStyle=orthogonalEdgeStyle;rounded=0;orthogonalLoop=1;jettySize=auto;html=1;exitX=0.5;exitY=1;exitDx=0;exitDy=0;exitPerimeter=0;entryX=1;entryY=0.5;entryDx=0;entryDy=0;entryPerimeter=0;strokeWidth=2;endArrow=none;endFill=0;" edge="1" parent="1" source="aR3fcNsO5CrJPgI6uOHy-56" target="aR3fcNsO5CrJPgI6uOHy-53">
          <mxGeometry relative="1" as="geometry" />
        </mxCell>
        <mxCell id="aR3fcNsO5CrJPgI6uOHy-85" style="edgeStyle=orthogonalEdgeStyle;rounded=0;orthogonalLoop=1;jettySize=auto;html=1;exitX=0;exitY=0.5;exitDx=0;exitDy=0;entryX=0.5;entryY=0;entryDx=0;entryDy=0;entryPerimeter=0;strokeWidth=2;endArrow=none;endFill=0;" edge="1" parent="1" source="aR3fcNsO5CrJPgI6uOHy-24" target="aR3fcNsO5CrJPgI6uOHy-13">
          <mxGeometry relative="1" as="geometry" />
        </mxCell>
        <mxCell id="aR3fcNsO5CrJPgI6uOHy-86" style="edgeStyle=orthogonalEdgeStyle;rounded=0;orthogonalLoop=1;jettySize=auto;html=1;exitX=0;exitY=0.5;exitDx=0;exitDy=0;exitPerimeter=0;entryX=1;entryY=0.5;entryDx=0;entryDy=0;entryPerimeter=0;strokeWidth=2;endArrow=none;endFill=0;" edge="1" parent="1" source="aR3fcNsO5CrJPgI6uOHy-9" target="aR3fcNsO5CrJPgI6uOHy-7">
          <mxGeometry relative="1" as="geometry" />
        </mxCell>
        <mxCell id="aR3fcNsO5CrJPgI6uOHy-87" value="$$g_mv_{b&#39;e}$$" style="text;html=1;align=center;verticalAlign=middle;whiteSpace=wrap;rounded=0;fontSize=16;" vertex="1" parent="1">
          <mxGeometry x="1554" y="3415" width="26" height="30" as="geometry" />
        </mxCell>
        <mxCell id="aR3fcNsO5CrJPgI6uOHy-88" style="edgeStyle=orthogonalEdgeStyle;rounded=0;orthogonalLoop=1;jettySize=auto;html=1;exitX=0;exitY=0.5;exitDx=0;exitDy=0;exitPerimeter=0;entryX=1;entryY=0.5;entryDx=0;entryDy=0;entryPerimeter=0;strokeWidth=2;endArrow=none;endFill=0;" edge="1" parent="1" source="aR3fcNsO5CrJPgI6uOHy-54" target="aR3fcNsO5CrJPgI6uOHy-53">
          <mxGeometry relative="1" as="geometry" />
        </mxCell>
        <mxCell id="aR3fcNsO5CrJPgI6uOHy-89" value="$$C_{b&#39;c}$$" style="text;html=1;align=center;verticalAlign=middle;whiteSpace=wrap;rounded=0;fontSize=16;" vertex="1" parent="1">
          <mxGeometry x="1460" y="3345" width="70" height="30" as="geometry" />
        </mxCell>
        <mxCell id="aR3fcNsO5CrJPgI6uOHy-99" style="edgeStyle=orthogonalEdgeStyle;rounded=0;orthogonalLoop=1;jettySize=auto;html=1;exitX=0;exitY=0.5;exitDx=0;exitDy=0;entryX=0.5;entryY=1;entryDx=0;entryDy=0;" edge="1" parent="1" source="aR3fcNsO5CrJPgI6uOHy-92" target="aR3fcNsO5CrJPgI6uOHy-97">
          <mxGeometry relative="1" as="geometry" />
        </mxCell>
        <mxCell id="aR3fcNsO5CrJPgI6uOHy-92" value="$$H(j\omega)$$" style="rounded=0;whiteSpace=wrap;html=1;strokeWidth=2;" vertex="1" parent="1">
          <mxGeometry x="1975" y="3270" width="85" height="55" as="geometry" />
        </mxCell>
        <mxCell id="aR3fcNsO5CrJPgI6uOHy-95" style="edgeStyle=orthogonalEdgeStyle;rounded=0;orthogonalLoop=1;jettySize=auto;html=1;exitX=1;exitY=0.5;exitDx=0;exitDy=0;entryX=1;entryY=0.5;entryDx=0;entryDy=0;" edge="1" parent="1" source="aR3fcNsO5CrJPgI6uOHy-93" target="aR3fcNsO5CrJPgI6uOHy-92">
          <mxGeometry relative="1" as="geometry">
            <Array as="points">
              <mxPoint x="2120" y="3201" />
              <mxPoint x="2120" y="3298" />
              <mxPoint x="2060" y="3298" />
            </Array>
          </mxGeometry>
        </mxCell>
        <mxCell id="aR3fcNsO5CrJPgI6uOHy-106" style="edgeStyle=orthogonalEdgeStyle;rounded=0;orthogonalLoop=1;jettySize=auto;html=1;exitX=1;exitY=0.5;exitDx=0;exitDy=0;" edge="1" parent="1" source="aR3fcNsO5CrJPgI6uOHy-93">
          <mxGeometry relative="1" as="geometry">
            <mxPoint x="2170" y="3201" as="targetPoint" />
          </mxGeometry>
        </mxCell>
        <mxCell id="aR3fcNsO5CrJPgI6uOHy-93" value="$$G(j\omega)$$" style="triangle;whiteSpace=wrap;html=1;strokeWidth=2;spacing=2;spacingRight=0;spacingLeft=-5;" vertex="1" parent="1">
          <mxGeometry x="1990" y="3161" width="70" height="80" as="geometry" />
        </mxCell>
        <mxCell id="aR3fcNsO5CrJPgI6uOHy-98" style="edgeStyle=orthogonalEdgeStyle;rounded=0;orthogonalLoop=1;jettySize=auto;html=1;exitX=1;exitY=0.5;exitDx=0;exitDy=0;entryX=0;entryY=0.5;entryDx=0;entryDy=0;" edge="1" parent="1" source="aR3fcNsO5CrJPgI6uOHy-97" target="aR3fcNsO5CrJPgI6uOHy-93">
          <mxGeometry relative="1" as="geometry" />
        </mxCell>
        <mxCell id="aR3fcNsO5CrJPgI6uOHy-104" style="edgeStyle=orthogonalEdgeStyle;rounded=0;orthogonalLoop=1;jettySize=auto;html=1;exitX=0;exitY=0.5;exitDx=0;exitDy=0;endArrow=none;endFill=0;startArrow=classic;startFill=1;" edge="1" parent="1" source="aR3fcNsO5CrJPgI6uOHy-97">
          <mxGeometry relative="1" as="geometry">
            <mxPoint x="1850" y="3201" as="targetPoint" />
          </mxGeometry>
        </mxCell>
        <mxCell id="aR3fcNsO5CrJPgI6uOHy-97" value="" style="shape=sumEllipse;perimeter=ellipsePerimeter;whiteSpace=wrap;html=1;backgroundOutline=1;strokeWidth=2;" vertex="1" parent="1">
          <mxGeometry x="1900" y="3186" width="30" height="30" as="geometry" />
        </mxCell>
        <mxCell id="aR3fcNsO5CrJPgI6uOHy-102" value="-" style="text;html=1;align=center;verticalAlign=middle;whiteSpace=wrap;rounded=0;fontSize=18;" vertex="1" parent="1">
          <mxGeometry x="1925" y="3216" width="10" height="10" as="geometry" />
        </mxCell>
        <mxCell id="aR3fcNsO5CrJPgI6uOHy-105" value="+" style="text;html=1;align=center;verticalAlign=middle;whiteSpace=wrap;rounded=0;fontSize=18;" vertex="1" parent="1">
          <mxGeometry x="1884" y="3209" width="10" height="10" as="geometry" />
        </mxCell>
        <mxCell id="aR3fcNsO5CrJPgI6uOHy-108" value="$$v_i$$" style="text;html=1;align=center;verticalAlign=middle;whiteSpace=wrap;rounded=0;fontSize=16;" vertex="1" parent="1">
          <mxGeometry x="1850" y="3177" width="20" height="20" as="geometry" />
        </mxCell>
        <mxCell id="aR3fcNsO5CrJPgI6uOHy-109" value="$$v_o$$" style="text;html=1;align=center;verticalAlign=middle;whiteSpace=wrap;rounded=0;fontSize=16;" vertex="1" parent="1">
          <mxGeometry x="2140" y="3175" width="20" height="20" as="geometry" />
        </mxCell>
      </root>
    </mxGraphModel>
  </diagram>
</mxfile>
